<svg xmlns="http://www.w3.org/2000/svg" viewBox="0 0 24 24" fill="none">
  <rect x="1.5" y="1.5" width="21" height="21" rx="5" fill="#0f766e" />
  <g transform="translate(5.5 5.5) scale(0.52)">
    <path
      d="M2 9a3 3 0 0 1 0 6v2a2 2 0 0 0 2 2h16a2 2 0 0 0 2-2v-2a3 3 0 0 1 0-6V7a2 2 0 0 0-2-2H4a2 2 0 0 0-2 2Z"
      stroke="#ffffff"
      stroke-width="1.8"
      stroke-linejoin="round"
    />
    <path d="M13 5v2" stroke="#ffffff" stroke-width="1.8" stroke-linecap="round" />
    <path d="M13 11v2" stroke="#ffffff" stroke-width="1.8" stroke-linecap="round" />
    <path d="M13 17v2" stroke="#ffffff" stroke-width="1.8" stroke-linecap="round" />
  </g>
</svg>
